<?xml version="1.0" standalone="no"?><!DOCTYPE svg PUBLIC "-//W3C//DTD SVG 1.1//EN" "http://www.w3.org/Graphics/SVG/1.1/DTD/svg11.dtd"><svg t="1534331173639" class="icon" style="" viewBox="0 0 1024 1024" version="1.1" xmlns="http://www.w3.org/2000/svg" p-id="2521" xmlns:xlink="http://www.w3.org/1999/xlink" width="200" height="200"><defs><style type="text/css"></style></defs><path d="M712.5 626.2v-248H531.2v572.4H931.9V778.9z" fill="#A4BEFF" p-id="2522"></path><path d="M64.5 72.9h505.6v47.7H64.5z" fill="#5B79FB" p-id="2523"></path><path d="M531.2 343.6h209.9v40.6H531.2zM960.5 803.9l-248-171.7v-40.6l248 171.8z" fill="#C7D8FF" p-id="2524"></path><path d="M97.9 120.6h438.9v791.9H97.9z" fill="#E5ECFF" p-id="2525"></path><path d="M140.9 607.1h353v38.2h-353z" fill="#FFFFFF" p-id="2526"></path><path d="M179 645.3h276.7v267.1H179z" fill="#5B79FB" p-id="2527"></path><path d="M187.8 187.4h76.3v76.3h-76.3z" fill="#FF7E71" p-id="2528"></path><path d="M187.8 292.3h76.3v76.3h-76.3zM578.9 416.3h76.3v76.3h-76.3z" fill="#5B79FB" p-id="2529"></path><path d="M64.5 902.9h505.6v47.7H64.5z" fill="#C7D8FF" p-id="2530"></path></svg>